<svg xmlns="http://www.w3.org/2000/svg" viewBox="0 0 32 32" fill="none" width="32" height="32">
  <defs>
    <linearGradient id="sbOuter" x1="0%" y1="0%" x2="100%" y2="100%">
      <stop offset="0%" stop-color="#00bfff"/>
      <stop offset="100%" stop-color="#008080"/>
    </linearGradient>
    
    <linearGradient id="sbCore" x1="100%" y1="0%" x2="0%" y2="100%">
      <stop offset="0%" stop-color="#00ffff"/>
      <stop offset="100%" stop-color="#00c0c0"/>
    </linearGradient>
  </defs>
  
  <path d="M16 2 L28 9 L28 23 L16 30 L4 23 L4 9 Z" stroke="url(#sbOuter)" stroke-width="1.5" fill="black" opacity="0.95"/>
  <path d="M16 6 L24 11 L24 21 L16 26 L8 21 L8 11 Z" fill="url(#sbOuter)" opacity="0.3"/>
  <path d="M16 10 L20 13 L20 19 L16 22 L12 19 L12 13 Z" fill="url(#sbCore)" opacity="0.95"/>
  <path d="M16 14 L17 16 L16 18 L15 16 Z" fill="white" opacity="1"/>
  
  <line x1="5" y1="10" x2="7" y2="10" stroke="url(#sbOuter)" stroke-width="1.5" opacity="0.7"/>
  <line x1="5" y1="10" x2="5" y2="12" stroke="url(#sbOuter)" stroke-width="1.5" opacity="0.7"/>
  <line x1="27" y1="22" x2="25" y2="22" stroke="url(#sbCore)" stroke-width="1.5" opacity="0.7"/>
  <line x1="27" y1="22" x2="27" y2="20" stroke="url(#sbCore)" stroke-width="1.5" opacity="0.7"/>
</svg>
